<?xml version="1.0" standalone="no"?><!DOCTYPE svg PUBLIC "-//W3C//DTD SVG 1.1//EN" "http://www.w3.org/Graphics/SVG/1.1/DTD/svg11.dtd"><svg t="1554260177644" class="icon" style="" viewBox="0 0 1180 1024" version="1.1" xmlns="http://www.w3.org/2000/svg" p-id="6486" xmlns:xlink="http://www.w3.org/1999/xlink" width="230.46875" height="200"><defs><style type="text/css"></style></defs><path d="M1147.733333 469.333333c25.6 25.6 42.666667 46.933333 12.8 72.533334-21.333333 17.066667-42.666667 34.133333-68.266666 51.2v-4.266667c-12.8 8.533333-29.866667 17.066667-46.933334 21.333333-25.6 8.533333-55.466667 12.8-85.333333 4.266667-21.333333 0-42.666667 4.266667-64 21.333333-12.8 12.8-12.8 46.933333-8.533333 76.8 0 12.8 4.266667 25.6 8.533333 38.4 4.266667 21.333333 21.333333 42.666667 42.666667 51.2 12.8 4.266667 21.333333 0 21.333333 12.8 0 8.533333-4.266667 12.8-4.266667 17.066667-8.533333 25.6-17.066667 51.2-34.133333 72.533333-4.266667 4.266667-8.533333 4.266667-17.066667 4.266667-29.866667-12.8-93.866667-21.333333-119.466666 17.066667s-51.2 46.933333-42.666667 68.266666-34.133333 38.4-55.466667 12.8-42.666667-81.066667-81.066666-68.266666-102.4-8.533333-123.733334 17.066666-55.466667 42.666667-68.266666 21.333334-34.133333-34.133333-59.733334-25.6c-25.6 4.266667-42.666667-21.333333-51.2-46.933334s-59.733333-59.733333-29.866666-64 51.2-42.666667 21.333333-68.266666-38.4-55.466667-21.333333-72.533334 17.066667-25.6 17.066666-25.6 59.733333-38.4 93.866667-59.733333 51.2-38.4 59.733333-21.333333 29.866667-38.4 46.933334-64-34.133333-68.266667-68.266667-102.4-12.8-98.133333 17.066667-106.666667 81.066667 4.266667 102.4-29.866667 59.733333-98.133333 93.866666-98.133333 89.6-8.533333 59.733334-38.4-51.2-68.266667-8.533334-55.466667c29.866667 8.533333 25.6-4.266667 21.333334-21.333333-8.533333-34.133333 29.866667-29.866667 46.933333-55.466667 42.666667-59.733333 38.4 21.333333 102.4 85.333334 38.4 38.4 81.066667 102.4 106.666667 93.866666s85.333333 8.533333 132.266666 8.533334 98.133333-21.333333 81.066667 4.266666-8.533333 59.733333-29.866667 55.466667-59.733333 8.533333-59.733333 42.666667c-4.266667 34.133333 0 72.533333 21.333333 106.666666 4.266667 17.066667 21.333333 34.133333 38.4 51.2z" fill="#436379" p-id="6487"></path></svg>