<?xml version="1.0" standalone="no"?><!DOCTYPE svg PUBLIC "-//W3C//DTD SVG 1.1//EN" "http://www.w3.org/Graphics/SVG/1.1/DTD/svg11.dtd"><svg t="1554263577528" class="icon" style="" viewBox="0 0 1024 1024" version="1.1" xmlns="http://www.w3.org/2000/svg" p-id="1596" xmlns:xlink="http://www.w3.org/1999/xlink" width="200" height="200"><defs><style type="text/css"></style></defs><path d="M574.190795 162.899131c-6.819076 0-6.15867-5.828979-13.582863-5.828979-9.183227 0-12.42792 6.323516-26.999856 5.114307-8.028285-0.659382-9.897899-0.05529-10.558306 9.623499-0.825252 11.493113 8.468556 13.692418 8.468556 27.934663-28.814181 0-24.085878 2.804422-36.84349-21.335723-6.323516 4.233766-2.694866 5.059017-11.657958 5.82898-1.375078 16.826531-4.014654 10.062745 10.227591 24.68997 3.244693 3.298959 2.913978 2.969267 5.223863 6.434096 1.375078 2.08975 3.959365 6.10338 5.279152 8.30371 0.220135 0.384981 0.494537 0.879517 0.714672 1.210232l3.298959 6.434096c2.694866 3.409538 5.059017 3.079847 8.19313 5.388708 2.14504 1.594189 0.934807 0.494537 2.913978 2.913978 0.275425 0.329691 0.549826 0.825252 0.769962 1.154942l1.539923 2.364151c0.220135 0.329691 0.605116 0.769962 0.825252 1.099653 5.388708 6.819076 5.664134 1.210232 5.664133 11.767514 0 7.038188-10.503016 7.589038-17.486937 7.753884-0.769962-9.018382 2.08975-3.409538-3.904075-7.753884-17.046667 3.959365-12.922457 3.904075-32.993681 3.904075-1.97917 4.729326-1.319788 1.539924 0 7.753884-10.118035-2.694866-16.002304-13.033036-25.239797-15.506744-2.804422 5.828979-1.264498 5.059017-2.584286 11.878094-1.704769 8.853536-4.783592 4.399635-5.938535 12.263075-1.429344 9.897899-3.354248 6.21396-12.867167 10.77844-2.309885 10.008479-0.714672 17.101957-10.997552 21.996129l-14.242245 9.073672c7.589038 14.351801 2.474731 14.297535-11.822804 17.322092-6.763786 1.429344-17.157246 2.309885-22.050394 7.038187-4.06892 3.848785-2.08975-1.649479-2.969268 6.708497h-7.753883c-2.530021-10.997552 0-8.633401-8.963093-12.37263-0.440271-0.164846-0.990097-0.329691-1.429344-0.494537l-14.847361-4.564481c-6.10338 9.073672-14.46238 13.252148-29.089606 13.582863 0 17.651783-7.808149 10.173325-18.971571 17.926184-5.059017 3.519094 0.220135 2.749132-8.19313 3.409538-0.605116 7.533748-3.024557 12.152495-5.828979 17.486938 7.808149 5.719423 0.329691 4.674037 13.582862 7.753883 0 11.382533-1.869615 17.651783 5.059018 24.030589 7.533748 6.983922 10.173325 11.217688 10.503015 24.470859 9.623498 2.254595 13.087302 0.494537 15.506744 9.677764h17.486937c3.904075-11.767514 3.904075 11.382533 5.77369 15.617323l5.279152 11.217688c1.869615 8.413266 6.26925 10.778441 8.357976 19.686243-5.443998 2.584287-5.664134 0.879517-10.723151 2.859712-1.154943 0.440271-4.399635 2.694866-4.674036 3.079847-2.14504 2.859712-1.319788-0.990097-2.08975 5.664133-12.977746 1.429344-6.10338 13.087302-16.16715 22.600221-7.148767 6.708497-7.972995 5.664134-7.093477 16.221415h-15.506743c-2.419441-9.018382-3.079847-1.704769-3.904075-11.657958h-7.753884c-2.913978 10.997552-1.924904 0.769962-6.21396 9.292783-2.584287 5.114307-0.825252 6.543651-3.464828 12.042939-8.357976 0-10.943286-0.825252-16.111859-1.484633-9.512919-1.210232-9.127938 0.825252-16.826532 1.484633v5.82898h-17.486937c-0.220135 9.127938-2.14504 6.488361 0 11.657958-8.688691-0.220135-7.643304-5.114307-13.967844 1.264498-9.623498 9.733054-5.499288 3.134113-14.736781 8.853537-7.038188 4.344345-1.319788 0.825252-5.993825 5.664133-1.649479 1.704769-1.099653 1.099653-2.913977 2.913978l-2.859712 2.969267c-8.083575 8.688691-3.519094 4.509191-13.857264 9.458653 0 1.814325 0.275425 6.323516 0.05529 7.808149-0.934807 7.478458-0.714672 4.453901-4.674037 8.908827-8.30371 9.348073 5.7184-8.028285-1.869614 1.97917l-3.189403 10.39346c0 7.423169 13.967844 7.753884 18.860991 12.152495l7.533749 7.972995c3.298959 3.079847 5.223863 4.783592 8.523845 6.983922-0.825252 9.897899-1.484634 2.639576-3.904075 11.657958 10.173325 0.879517 3.519094-1.869615 5.828979 3.904075l-3.794519 9.897899c-0.934807 3.409538-3.739229 2.419441 2.08975 7.039212 6.488361 5.114307 11.493113 2.419441 17.211513 10.22759-4.06892 6.049114-6.708497 6.049114-14.847362 8.688691-11.713248 3.848785-5.664134 2.859712-14.242244-2.859712-8.083575 5.388708-3.464828 5.828979-17.486938 5.82898-2.08975 9.897899 1.044363 6.763786 1.924905 17.486937 17.101957 3.959365 16.221415 0 17.541203 15.452477 1.264498 15.121762-2.639576 16.937111-5.938535 29.144896 16.49684 0 15.506743 1.319788 15.506743 17.486938 10.723151-0.879517 4.674037-4.453901 12.317341 1.264498l6.378805 6.873342 0.384981 0.769962c0.05529 0.109556 0.164846 0.549826 0.329691 0.769962 9.788344-0.825252 40.747564-14.736781 40.747565 3.904074v9.677765c11.437823 0 12.152495 2.419441 16.826531 12.31734 2.913978 6.15867 4.06892 10.997552 14.242245 10.997552h17.486937v-15.506743c7.808149-0.879517 0.164846-0.220135 4.1795-1.375078 4.344345-1.264498-0.659382-0.384981 3.519094-0.934807 0.605116-0.05529 9.733054 0.329691 11.657958 0.329691 0.109556-0.220135 0.329691-0.879517 0.384981-0.714672 0.05529 0.220135 0.384981-0.605116 0.440271-0.714672 3.519094-6.708497 1.924904 2.364151 3.079847-8.30371 5.993825-0.494537 3.683939 0 7.753884-1.924905-2.749132-7.643304-3.683939-3.848785-3.904075-11.657958 9.623498 0.825252 4.399635 0.220135 9.348073 6.21396 4.453901 5.443998 4.1795 1.760059 6.21396 9.348073h9.677764v-13.582862h5.828979c0.494537 5.993825 0 3.683939 1.924905 7.753883l11.328267 0.274401c10.28288 2.969267 31.344201 3.629673 43.00216 3.629674v-5.828979c19.741533 0 21.775993-0.769962 30.298814 14.3518 2.694866 4.729326 4.12421 18.366455 4.618747 24.47086 4.894172 0.109556 2.804422-0.05529 6.708496 1.044363l7.038188 2.694866c9.458653 4.014654 11.328267 15.726879 20.23607 18.58659 4.453901 1.429344 13.142592-0.990097 20.400915-0.990097 6.763786 0 2.749132 3.464828 11.657958 5.828979 2.584287-2.364151 2.474731-2.08975 5.828979-3.904075-0.659382-8.19313-1.429344-14.132689-6.323515-18.916281-5.828979-5.719423-1.649479 1.154943-6.654231-6.928632-1.869615-3.024557-2.969267-6.26925-4.509191-9.073672 5.719423 1.319788 5.938535 1.924904 13.582863 1.924905v-5.82898l11.547378-2.254595 0.05529-5.499288c16.111859-1.319788 17.486937-11.217688 17.486937-23.260627h15.506744c-1.594189-7.533748-1.594189-2.14504 0-9.677764 5.884269-0.109556 7.093478-0.879517 11.657958-1.924904 0.220135 8.798247-1.319788 6.763786 4.674037 10.832706l10.832706 2.749132c3.959365-9.788344 17.046667 1.704769 27.164702 1.924905-2.530021-9.403363-3.298959-2.254595-5.828979-11.657958 14.682516 0 21.885549-2.694866 25.239797 9.677764 7.368903-8.468556 8.357976-8.633401 21.335722-11.657959-2.419441-9.018382-3.079847-1.704769-3.904075-11.657958 7.753884-1.814325 7.533748-0.494537 7.753884-9.677764 11.93236-0.275425 7.423169-3.629673 19.410818-3.904075-0.329691-14.902651-4.838882-5.719423-6.598941-16.55213-1.649479-10.173325 16.331995-4.838882 4.674037-22.216264 14.571936-3.904075-2.530021-9.677764 17.486937-9.677764-1.760059-6.488361-1.375078-2.859712-3.739229-7.313613-0.109556-0.220135-0.384981-0.714672-0.494537-0.934807-1.814325-3.574384-2.254595-17.596493-9.292783-22.76609-5.993825 4.289056-3.739229-0.769962-1.924904 7.753883-18.256899-4.894172-19.301262-30.244549-40.747565-25.239797-3.354248-14.40709-1.924904-9.127938-1.924904-23.260627 0-8.413266-1.264498-9.512919-9.677764-9.677764 6.928632-14.40709 1.814325-32.993681 13.582863-32.99368h9.677764v-7.753884c6.763786-0.549826 5.719423-0.384981 9.677764-3.904075 5.553554 3.683939 3.189403 5.003728 9.183227 4.949462 12.757611-0.220135 8.028285-4.618747 22.490665-1.319788 5.059017 1.154943 3.904075 0.220135 10.997553-1.64948 2.584287 9.733054 12.207785 7.753884 21.335722 7.753884 1.869615-8.083575 16.49684-17.486937 23.260627-17.486937 8.413266 0 7.808149 3.904075 13.582863 3.904074l34.423024-20.071224c10.118035-9.458653 3.629673-3.244693 12.152495-3.244692 5.114307 0 10.118035-4.618747 13.801974-7.533749 4.838882-3.904075 15.286608-2.859712 16.661686-12.263074 0.825252-5.553554-1.814325-4.674037 1.099653-7.423169 3.519094-3.298959 10.447726-0.659382 16.991377-3.794519-2.254595-6.763786 0.990097-1.375078-9.677764-3.904074 1.154943-10.723151-1.375078 5.664134 0.934807-2.913978l0.714672-2.419441c0.05529-0.220135 0.164846-0.769962 0.164846-0.990097 0.220135-4.12421-0.934807 0.879517-1.814325-7.258323 17.156223-1.484634-7.423169-5.443998-10.062745-7.368903-12.152495-8.853536 10.118035-19.795799-19.026861-19.795799 0-11.713248-1.539924-7.423169-6.378806-15.121762l-3.244692-10.723151c-3.134113-7.643304-6.21396-16.05657-15.562033-16.826532 1.264498-5.334443 3.794519-6.543651 4.12421-11.713248 0-0.220135-0.05529-0.769962-0.05529-0.934807 0-0.220135-0.164846-0.714672-0.164846-0.934807-0.659382-8.688691 5.223863-10.667861 9.733054-17.431648-11.987649-17.926184-3.574384 3.024557-12.537476-21.500568-1.814325-4.949462-0.05529-3.794519-6.873342-5.608844 1.594189-19.136417 27.329547 3.409538 13.582863-25.239797l13.801974-5.553554c6.26925-2.749132 7.808149-8.028285 15.286608-8.028285 8.908826 0 13.637129 0.825252 15.506743 7.753884 9.073672-0.220135 4.783592-0.384981 9.512919-2.14504l2.749132-1.154943c0.440271-0.164846 0.934807-0.384981 1.375078-0.549826 3.079847-1.154943 2.309885-0.329691 5.773689-2.03446-8.853536-18.476011-2.309885-12.042939-1.924904-29.089606 6.434095-0.549826 10.39346-3.244693 13.967844-3.298959 12.537476-0.329691-2.913978 3.298959 15.121762 3.298959 0-16.772266 1.099653-14.736781-16.606396-18.311165-10.33817-2.08975-10.832707-6.434095-20.23607-3.189403-2.530021 0.879517-4.12421 2.08975-8.633401 3.134113-2.528997 0.605116-3.244693 0.440271-5.003727 0.825252l-4.564481 1.210232c-0.440271 0.164846-0.879517 0.440271-1.319788 0.660406-7.038188 3.409538 0.605116 2.804422-9.568209 4.014654-3.244693 0.384981-10.008479-0.05529-13.582862-0.055289-1.760059-6.654231-0.714672-5.334443-6.323516-7.258323-6.26925-2.14504-3.244693 0.825252-10.778441-2.804422-16.441551-7.972995-46.136273-12.37263-64.722863-5.77369-4.289056 1.539924 1.704769 2.309885-11.272977 2.309886-2.254595 0-9.568208-4.453901-11.713249-5.7184l-19.026861-19.576687c-1.97917-3.574384-0.384981-6.598941-0.274401-11.547379-11.108132-5.334443-8.138864 2.474731-12.867167-10.447726l-1.484633-4.344345c-3.134113-7.698594-9.238517-14.46238-17.376358-17.761339-8.413266-3.354248-10.558305-2.08975-10.943287-2.419441-5.938535-11.217688-3.189403-9.623498-14.022109-16.991377l-2.254596-1.59419-2.199305-1.649479-14.462381-8.853536c0.825252-9.897899 1.484634-2.639576 3.904075-11.657958-6.928632-3.354248-6.378806 0.220135-10.723151-6.708497l-6.708496-12.702321c5.664134-8.413266 7.753884-19.466108 7.753883-31.014511-10.667861-0.879517-25.405667-15.012207-28.044219-2.969267-1.044363 4.894172 0.549826 5.938535 0.605116 10.943286 0.109556 6.873342 0.494537 21.115587-7.533748 21.115587l-0.326619-0.117747z" fill="#C7EDA6" p-id="1597"></path></svg>